<?xml version="1.0" encoding="utf-8"?>
<svg id="master-artboard" viewBox="0 0 1400 980" xmlns="http://www.w3.org/2000/svg" width="1400px" height="980px" version="1.1" style="shape-rendering:geometricPrecision; text-rendering:geometricPrecision; image-rendering:optimizeQuality; fill-rule:evenodd; clip-rule:evenodd"><defs><filter x="-50%" y="-50%" width="200%" height="200%" filterUnits="objectBoundingBox" id="a"><feOffset dx="1" dy="1" in="SourceAlpha" result="shadowOffsetOuter1"/><feColorMatrix values="0 0 0 0 1 0 0 0 0 1 0 0 0 0 1 0 0 0 0.323001585 0" in="shadowOffsetOuter1" result="shadowMatrixOuter1"/><feMerge><feMergeNode in="shadowMatrixOuter1"/><feMergeNode in="SourceGraphic"/></feMerge></filter><filter x="-50%" y="-50%" width="200%" height="200%" filterUnits="objectBoundingBox" id="filter-1"><feOffset dx="1" dy="1" in="SourceAlpha" result="shadowOffsetOuter1"/><feColorMatrix values="0 0 0 0 1 0 0 0 0 1 0 0 0 0 1 0 0 0 0.323001585 0" in="shadowOffsetOuter1" result="shadowMatrixOuter1"/><feMerge><feMergeNode in="shadowMatrixOuter1"/><feMergeNode in="SourceGraphic"/></feMerge></filter><style id="ee-google-fonts">@import url(https://fonts.googleapis.com/css?family=Condiment:400);</style></defs><rect id="ee-background" x="0" y="0" width="1400" height="980" style="fill: white; fill-opacity: 1; pointer-events: none;"/>
 
 <metadata id="CorelCorpID_0Corel-Layer"/>
<path d="M 267.7016296386719 337.3299865722656 C 267.7016296386719 337.3299865722656 267.52496337890625 337.49334716796875 267.171630859375 337.82000732421875 C 266.81829833984375 338.1400146484375 266.0716247558594 338.50665283203125 264.931640625 338.9200134277344 C 263.7983093261719 339.32666015625 262.6949768066406 339.5299987792969 261.62164306640625 339.5299987792969 C 260.5483093261719 339.5299987792969 259.78497314453125 339.4766540527344 259.3316345214844 339.3699951171875 C 258.87164306640625 339.2699890136719 258.60162353515625 339.2200012207031 258.5216369628906 339.2200012207031 C 258.36163330078125 339.2200012207031 258.2016296386719 339.26666259765625 258.0416259765625 339.3599853515625 C 257.53497314453125 339.82666015625 256.921630859375 340.05999755859375 256.2016296386719 340.05999755859375 C 255.4816436767578 340.05999755859375 255.12164306640625 339.92999267578125 255.12164306640625 339.6700134277344 C 255.12164306640625 339.4966735839844 255.6749725341797 338.45001220703125 256.7816467285156 336.5299987792969 C 257.89495849609375 334.6099853515625 259.1282958984375 332.47332763671875 260.48162841796875 330.1199951171875 C 261.8349609375 327.76666259765625 262.70831298828125 326.1499938964844 263.10162353515625 325.2699890136719 C 263.4883117675781 324.3900146484375 263.681640625 323.6300048828125 263.681640625 322.989990234375 L 263.681640625 322.79998779296875 C 263.681640625 322.3666687011719 264.921630859375 322.1499938964844 267.4016418457031 322.1499938964844 C 269.6749572753906 322.1499938964844 271.13165283203125 322.2699890136719 271.7716369628906 322.510009765625 C 272.60498046875 322.8299865722656 273.1249694824219 323.2533264160156 273.3316345214844 323.7799987792969 C 273.45831298828125 324.1000061035156 273.5216369628906 324.4866638183594 273.5216369628906 324.94000244140625 C 273.5216369628906 325.6600036621094 273.25830078125 326.3399963378906 272.73162841796875 326.9800109863281 C 271.75830078125 328.1266784667969 270.4949645996094 328.88665771484375 268.941650390625 329.260009765625 C 268.3482971191406 329.3999938964844 267.9949645996094 329.5199890136719 267.88165283203125 329.6199951171875 C 267.77496337890625 329.71331787109375 267.7216491699219 329.8133239746094 267.7216491699219 329.9200134277344 C 267.7216491699219 330.0199890136719 267.8349609375 330.14666748046875 268.0616455078125 330.29998779296875 C 268.29498291015625 330.4533386230469 268.5516357421875 330.6166687011719 268.8316345214844 330.7900085449219 C 269.11163330078125 330.9700012207031 269.3683166503906 331.260009765625 269.60162353515625 331.6600036621094 C 269.8349609375 332.05999755859375 269.9516296386719 332.5666809082031 269.9516296386719 333.17999267578125 C 269.9516296386719 333.7933349609375 269.7549743652344 334.4766540527344 269.36163330078125 335.2300109863281 C 268.9682922363281 335.98333740234375 268.41497802734375 336.6833190917969 267.7016296386719 337.3299865722656 M 265.60162353515625 336.0199890136719 C 265.60162353515625 336.0199890136719 265.7182922363281 335.8800048828125 265.9516296386719 335.6000061035156 C 266.1849670410156 335.32000732421875 266.4349670410156 334.8933410644531 266.7016296386719 334.32000732421875 C 266.9616394042969 333.7466735839844 267.0916442871094 333.2633361816406 267.0916442871094 332.8699951171875 C 267.0916442871094 332.4766540527344 267.0316467285156 332.1400146484375 266.9116516113281 331.8599853515625 C 266.7916259765625 331.5799865722656 266.6516418457031 331.3666687011719 266.49163818359375 331.2200012207031 C 266.3316345214844 331.0799865722656 266.1416320800781 330.9700012207031 265.921630859375 330.8900146484375 C 265.5816345214844 330.7633361816406 265.2449645996094 330.70001220703125 264.9116516113281 330.70001220703125 L 264.671630859375 330.70001220703125 C 264.4649658203125 330.70001220703125 264.36163330078125 330.6266784667969 264.36163330078125 330.4800109863281 C 264.36163330078125 330.14666748046875 264.4849853515625 329.7900085449219 264.73162841796875 329.4100036621094 C 264.9783020019531 329.03668212890625 265.2616271972656 328.8500061035156 265.5816345214844 328.8500061035156 C 266.8749694824219 328.8500061035156 268.03497314453125 328.4166564941406 269.0616455078125 327.54998779296875 C 270.08831787109375 326.69000244140625 270.60162353515625 325.7699890136719 270.60162353515625 324.7900085449219 C 270.60162353515625 323.9433288574219 270.0416259765625 323.5199890136719 268.921630859375 323.5199890136719 C 267.9883117675781 323.5199890136719 267.33831787109375 323.74334716796875 266.9716491699219 324.19000244140625 C 265.9649658203125 325.4366760253906 264.50830078125 327.760009765625 262.60162353515625 331.1600036621094 C 260.7016296386719 334.55999755859375 259.75164794921875 336.5566711425781 259.75164794921875 337.1499938964844 C 259.75164794921875 337.3900146484375 259.88165283203125 337.6000061035156 260.1416320800781 337.7799987792969 C 260.4082946777344 337.9533386230469 260.8883056640625 338.0400085449219 261.5816345214844 338.0400085449219 C 262.2816467285156 338.0400085449219 263.0116271972656 337.84332275390625 263.7716369628906 337.45001220703125 C 264.5316467285156 337.0566711425781 265.1416320800781 336.5799865722656 265.60162353515625 336.0199890136719 ZM 287.8536376953125 325.29998779296875 C 287.8536376953125 325.29998779296875 287.8536376953125 325.5633239746094 287.8536376953125 326.0899963378906 C 287.8536376953125 326.6166687011719 287.62030029296875 327.3133239746094 287.15362548828125 328.17999267578125 C 286.6936340332031 329.0400085449219 286.1702880859375 329.739990234375 285.5836181640625 330.2799987792969 C 285.0036315917969 330.8133239746094 284.1602783203125 331.2733459472656 283.0536193847656 331.6600036621094 C 281.94696044921875 332.0400085449219 280.6502990722656 332.2300109863281 279.16363525390625 332.2300109863281 C 277.6769714355469 332.2300109863281 276.64697265625 332.3999938964844 276.0736389160156 332.739990234375 C 275.4936218261719 333.0733337402344 274.9336242675781 333.7200012207031 274.39361572265625 334.67999267578125 C 273.9936218261719 335.35333251953125 273.58697509765625 336.1300048828125 273.1736145019531 337.010009765625 C 272.7669677734375 337.8900146484375 272.5069580078125 338.50665283203125 272.39361572265625 338.8599853515625 C 272.2869567871094 339.2066650390625 271.9836120605469 339.489990234375 271.4836120605469 339.7099914550781 C 270.99029541015625 339.92333984375 270.5269470214844 340.0400085449219 270.0936279296875 340.05999755859375 L 269.4236145019531 340.1000061035156 C 268.9436340332031 340.1000061035156 268.70361328125 339.9966735839844 268.70361328125 339.7900085449219 L 268.70361328125 339.7200012207031 C 268.70361328125 339.5466613769531 269.2602844238281 338.5 270.3736267089844 336.5799865722656 C 271.48028564453125 334.6600036621094 272.7102966308594 332.5233459472656 274.0636291503906 330.1700134277344 C 275.4169616699219 327.8166809082031 276.290283203125 326.20001220703125 276.6836242675781 325.32000732421875 C 277.07696533203125 324.44000244140625 277.27362060546875 323.6966552734375 277.27362060546875 323.0899963378906 L 277.27362060546875 322.8500061035156 C 277.27362060546875 322.5899963378906 277.8202819824219 322.3933410644531 278.91363525390625 322.260009765625 C 280.0069580078125 322.1266784667969 281.18695068359375 322.05999755859375 282.45361328125 322.05999755859375 C 284.4669494628906 322.05999755859375 285.87030029296875 322.3333435058594 286.66363525390625 322.8800048828125 C 287.45697021484375 323.4333190917969 287.8536376953125 324.239990234375 287.8536376953125 325.29998779296875 M 280.5936279296875 324.1700134277344 C 280.5936279296875 324.1700134277344 280.4836120605469 324.2933349609375 280.2636413574219 324.5400085449219 C 280.04364013671875 324.78668212890625 279.4302978515625 325.7466735839844 278.4236145019531 327.4200134277344 C 277.4169616699219 329.09332275390625 276.91363525390625 330.0299987792969 276.91363525390625 330.2300109863281 C 276.91363525390625 330.42999267578125 277.02362060546875 330.55999755859375 277.2436218261719 330.6199951171875 C 277.4703063964844 330.6866760253906 278.0102844238281 330.7200012207031 278.8636169433594 330.7200012207031 C 279.7236328125 330.7200012207031 280.55694580078125 330.5666809082031 281.3636169433594 330.260009765625 C 282.1702880859375 329.9599914550781 282.80694580078125 329.59332275390625 283.27362060546875 329.1600036621094 C 283.7336120605469 328.7266540527344 284.1169738769531 328.2466735839844 284.4236145019531 327.7200012207031 C 284.93695068359375 326.82666015625 285.1936340332031 326.1000061035156 285.1936340332031 325.5400085449219 C 285.1936340332031 324.9800109863281 285.1169738769531 324.55999755859375 284.963623046875 324.2799987792969 C 284.810302734375 324 284.5903015136719 323.8033447265625 284.3036193847656 323.69000244140625 C 283.8236389160156 323.510009765625 283.1936340332031 323.4200134277344 282.41363525390625 323.4200134277344 C 281.6402893066406 323.4200134277344 281.03363037109375 323.6700134277344 280.5936279296875 324.1700134277344 ZM 287.6156311035156 339.54998779296875 C 286.7689514160156 339.54998779296875 286.2256164550781 339.5233459472656 285.9856262207031 339.4700012207031 C 285.7456359863281 339.4100036621094 285.5389709472656 339.3599853515625 285.3656311035156 339.32000732421875 C 285.1989440917969 339.2799987792969 285.09228515625 339.2533264160156 285.0456237792969 339.239990234375 C 284.99896240234375 339.2266540527344 284.9256286621094 339.2200012207031 284.82562255859375 339.2200012207031 C 284.6389465332031 339.2200012207031 284.46563720703125 339.26666259765625 284.3056335449219 339.3599853515625 C 283.7456359863281 339.82666015625 283.00897216796875 340.05999755859375 282.0956115722656 340.05999755859375 C 281.6156311035156 340.05999755859375 281.3756103515625 339.95001220703125 281.3756103515625 339.7300109863281 C 281.3756103515625 339.51666259765625 281.9322814941406 338.45001220703125 283.0456237792969 336.5299987792969 C 284.15228271484375 334.6099853515625 285.3822937011719 332.47332763671875 286.7356262207031 330.1199951171875 C 288.0889587402344 327.76666259765625 288.9622802734375 326.1499938964844 289.3556213378906 325.2699890136719 C 289.74896240234375 324.3900146484375 289.94561767578125 323.6300048828125 289.94561767578125 322.989990234375 L 289.94561767578125 322.79998779296875 C 289.94561767578125 322.3333435058594 291.2789611816406 322.1000061035156 293.94561767578125 322.1000061035156 C 297.9189453125 322.1000061035156 299.9056396484375 323.4533386230469 299.9056396484375 326.1600036621094 C 299.9056396484375 328.11334228515625 299.23895263671875 330.26666259765625 297.9056091308594 332.6199951171875 C 297.2189636230469 333.8466796875 296.41229248046875 334.97332763671875 295.4856262207031 336 C 294.5589599609375 337.02667236328125 293.40228271484375 337.8733215332031 292.015625 338.5400085449219 C 290.6356201171875 339.2133483886719 289.1689453125 339.54998779296875 287.6156311035156 339.54998779296875 M 295.505615234375 331.3299865722656 C 295.505615234375 331.3299865722656 295.6556091308594 331.0433349609375 295.95562744140625 330.4700012207031 C 296.24896240234375 329.9033203125 296.5522766113281 329.1199951171875 296.8656311035156 328.1199951171875 C 297.178955078125 327.1199951171875 297.33563232421875 326.2799987792969 297.33563232421875 325.6000061035156 C 297.33563232421875 324.9200134277344 297.1389465332031 324.4033203125 296.7456359863281 324.04998779296875 C 296.352294921875 323.6966552734375 295.6922912597656 323.5199890136719 294.765625 323.5199890136719 C 294.1256103515625 323.5199890136719 293.6123046875 323.74334716796875 293.2256164550781 324.19000244140625 C 292.2189636230469 325.4566650390625 290.765625 327.7900085449219 288.8656311035156 331.19000244140625 C 286.9589538574219 334.5899963378906 286.005615234375 336.57666015625 286.005615234375 337.1499938964844 C 286.005615234375 337.7900085449219 286.6856384277344 338.1099853515625 288.0456237792969 338.1099853515625 C 289.005615234375 338.1099853515625 289.9722900390625 337.7733459472656 290.94561767578125 337.1000061035156 C 291.9256286621094 336.4333190917969 292.78228759765625 335.5899963378906 293.515625 334.57000732421875 C 294.255615234375 333.5566711425781 294.9189453125 332.4766540527344 295.505615234375 331.3299865722656 ZM 306.33758544921875 339.5799865722656 C 303.6976013183594 339.5799865722656 302.3775939941406 338.23333740234375 302.3775939941406 335.5400085449219 C 302.3775939941406 334.760009765625 302.56427001953125 333.80999755859375 302.9375915527344 332.69000244140625 C 303.3109130859375 331.57000732421875 303.8675842285156 330.40667724609375 304.60760498046875 329.20001220703125 C 305.3409118652344 327.9866638183594 306.1709289550781 326.8599853515625 307.09759521484375 325.82000732421875 C 308.0309143066406 324.7799987792969 309.12091064453125 323.9266662597656 310.3675842285156 323.260009765625 C 311.6142578125 322.586669921875 312.87091064453125 322.25 314.1376037597656 322.25 C 314.7242431640625 322.25 315.1775817871094 322.3166809082031 315.4975891113281 322.45001220703125 C 315.8175964355469 322.5899963378906 315.9909362792969 322.6600036621094 316.017578125 322.6600036621094 C 316.04425048828125 322.6600036621094 316.2442626953125 322.5799865722656 316.6175842285156 322.4200134277344 C 316.9909362792969 322.260009765625 317.4375915527344 322.17999267578125 317.95758056640625 322.17999267578125 C 318.47760009765625 322.17999267578125 318.7375793457031 322.32666015625 318.7375793457031 322.6199951171875 C 318.7375793457031 322.913330078125 318.430908203125 323.5566711425781 317.8175964355469 324.54998779296875 C 317.2042541503906 325.5433349609375 316.4642639160156 326.4966735839844 315.59759521484375 327.4100036621094 C 314.7309265136719 328.3233337402344 314.04425048828125 328.7799987792969 313.53759765625 328.7799987792969 C 313.4709167480469 328.7933349609375 313.39093017578125 328.79998779296875 313.2975769042969 328.79998779296875 C 312.9909362792969 328.79998779296875 312.83758544921875 328.71331787109375 312.83758544921875 328.5400085449219 C 312.83758544921875 328.50665283203125 312.950927734375 328.32666015625 313.1775817871094 328 C 313.3975830078125 327.6666564941406 313.62091064453125 327.2266540527344 313.84759521484375 326.67999267578125 C 314.0675964355469 326.1266784667969 314.1775817871094 325.67999267578125 314.1775817871094 325.3399963378906 C 314.1775817871094 325.00665283203125 314.16424560546875 324.76666259765625 314.1376037597656 324.6199951171875 C 314.104248046875 324.4800109863281 313.9942626953125 324.3133239746094 313.8075866699219 324.1199951171875 C 313.6275939941406 323.9266662597656 313.3775939941406 323.8299865722656 313.0575866699219 323.8299865722656 C 312.19091796875 323.8299865722656 311.1609191894531 324.4866638183594 309.96759033203125 325.79998779296875 C 308.7742614746094 327.11334228515625 307.75091552734375 328.6533203125 306.8975830078125 330.4200134277344 C 306.04425048828125 332.1866760253906 305.6175842285156 333.6866760253906 305.6175842285156 334.9200134277344 C 305.6175842285156 336.3933410644531 306.28759765625 337.1300048828125 307.6275939941406 337.1300048828125 C 309.22760009765625 337.1300048828125 310.7809143066406 336.0966796875 312.28759765625 334.0299987792969 C 312.34759521484375 333.9033203125 312.41424560546875 333.8399963378906 312.4875793457031 333.8399963378906 C 312.5609130859375 333.8399963378906 312.6175842285156 333.84332275390625 312.6575927734375 333.8500061035156 C 312.6976013183594 333.8566589355469 312.7542724609375 333.90667724609375 312.82757568359375 334 C 312.9009094238281 334.086669921875 312.9375915527344 334.25 312.9375915527344 334.489990234375 C 312.9375915527344 334.7300109863281 312.77093505859375 335.1300048828125 312.4375915527344 335.69000244140625 C 312.1109313964844 336.25 311.6775817871094 336.82666015625 311.1376037597656 337.4200134277344 C 310.5909118652344 338.00665283203125 309.8842468261719 338.5133361816406 309.017578125 338.94000244140625 C 308.1575927734375 339.3666687011719 307.2642517089844 339.5799865722656 306.33758544921875 339.5799865722656 ZM 314.32159423828125 339.30999755859375 C 313.9549255371094 339.13665771484375 313.6549377441406 338.82666015625 313.4216003417969 338.3800048828125 C 313.1949157714844 337.9266662597656 313.08160400390625 337.3733215332031 313.08160400390625 336.7200012207031 C 313.08160400390625 335.6933288574219 313.4115905761719 334.6199951171875 314.07159423828125 333.5 C 314.7382507324219 332.3800048828125 315.6749267578125 331.4200134277344 316.881591796875 330.6199951171875 C 318.0882568359375 329.82000732421875 319.36492919921875 329.4200134277344 320.71160888671875 329.4200134277344 C 321.33160400390625 329.4200134277344 321.8515930175781 329.5899963378906 322.2716064453125 329.92999267578125 C 322.6849365234375 330.2633361816406 322.8916015625 330.59332275390625 322.8916015625 330.9200134277344 C 322.8916015625 331.2533264160156 322.8449401855469 331.5133361816406 322.7515869140625 331.70001220703125 C 322.651611328125 331.8933410644531 322.6015930175781 332.0233459472656 322.6015930175781 332.0899963378906 C 322.6015930175781 332.2833251953125 322.75494384765625 332.3800048828125 323.06158447265625 332.3800048828125 C 323.3682556152344 332.3800048828125 323.6015930175781 332.3399963378906 323.7615966796875 332.260009765625 C 323.9216003417969 332.17999267578125 324.0149230957031 332.1400146484375 324.0415954589844 332.1400146484375 C 324.1749267578125 332.1400146484375 324.2416076660156 332.3033447265625 324.2416076660156 332.6300048828125 C 324.2416076660156 332.9566650390625 324.08160400390625 333.3399963378906 323.7615966796875 333.7799987792969 C 323.44158935546875 334.2200012207031 323.04827880859375 334.5433349609375 322.58160400390625 334.75 C 322.5149230957031 334.8766784667969 322.4282531738281 335.0566711425781 322.32159423828125 335.2900085449219 C 322.208251953125 335.5233459472656 321.94158935546875 335.92333984375 321.5216064453125 336.489990234375 C 321.1082763671875 337.0566711425781 320.6649169921875 337.55999755859375 320.19158935546875 338 C 319.71826171875 338.44000244140625 319.0949401855469 338.8399963378906 318.32159423828125 339.20001220703125 C 317.54827880859375 339.55999755859375 316.8415832519531 339.739990234375 316.20159912109375 339.739990234375 C 315.56158447265625 339.739990234375 314.9349365234375 339.5966796875 314.32159423828125 339.30999755859375 M 319.6816101074219 335.17999267578125 C 319.6816101074219 335.0533447265625 319.6082763671875 334.989990234375 319.46160888671875 334.989990234375 C 319.25494384765625 334.989990234375 319.01824951171875 335.0400085449219 318.7515869140625 335.1400146484375 C 318.4916076660156 335.23333740234375 318.3449401855469 335.2799987792969 318.31158447265625 335.2799987792969 C 318.21160888671875 335.2799987792969 318.1615905761719 335.2066650390625 318.1615905761719 335.05999755859375 C 318.1615905761719 334.44000244140625 318.3882751464844 333.90667724609375 318.8415832519531 333.4599914550781 C 319.0149230957031 333.26666259765625 319.26824951171875 333.1000061035156 319.6015930175781 332.9599914550781 C 319.94158935546875 332.82666015625 320.20159912109375 332.6666564941406 320.381591796875 332.4800109863281 C 320.5682678222656 332.29998779296875 320.6615905761719 331.9866638183594 320.6615905761719 331.5400085449219 C 320.6615905761719 330.99334716796875 320.37493896484375 330.7200012207031 319.8016052246094 330.7200012207031 C 318.7749328613281 330.7200012207031 317.79827880859375 331.4433288574219 316.87158203125 332.8900146484375 C 315.9449157714844 334.336669921875 315.4815979003906 335.6300048828125 315.4815979003906 336.7699890136719 C 315.4815979003906 337.1499938964844 315.6116027832031 337.4766540527344 315.87158203125 337.75 C 316.1382751464844 338.0233459472656 316.4549255371094 338.1600036621094 316.82159423828125 338.1600036621094 C 317.6549377441406 338.1600036621094 318.3382568359375 337.8133239746094 318.87158203125 337.1199951171875 C 319.4115905761719 336.4200134277344 319.6816101074219 335.7733459472656 319.6816101074219 335.17999267578125 ZM 329.8055725097656 336.8399963378906 C 329.8055725097656 336.7266540527344 329.7655944824219 336.6700134277344 329.6855773925781 336.6700134277344 L 329.6355895996094 336.6700134277344 L 329.27557373046875 336.8399963378906 C 328.235595703125 337.8466796875 327.388916015625 338.5400085449219 326.735595703125 338.9200134277344 C 326.0755920410156 339.2933349609375 325.3955993652344 339.4800109863281 324.6955871582031 339.4800109863281 C 324.3755798339844 339.4800109863281 324.0855712890625 339.3833312988281 323.8255920410156 339.19000244140625 C 323.572265625 338.9966735839844 323.4455871582031 338.6300048828125 323.4455871582031 338.0899963378906 C 323.4455871582031 337.5433349609375 323.7255859375 336.5833435058594 324.28558349609375 335.2099914550781 C 324.8455810546875 333.8299865722656 325.5422668457031 332.5133361816406 326.3755798339844 331.260009765625 C 327.20892333984375 330.00665283203125 327.9355773925781 329.29998779296875 328.5555725097656 329.1400146484375 C 328.76226806640625 329.0733337402344 329.0422668457031 329.0400085449219 329.3955993652344 329.0400085449219 C 329.7489318847656 329.0400085449219 329.92559814453125 329.13665771484375 329.92559814453125 329.3299865722656 C 329.92559814453125 329.3900146484375 329.638916015625 329.8333435058594 329.0655822753906 330.6600036621094 C 328.485595703125 331.4866638183594 327.9122619628906 332.4266662597656 327.3455810546875 333.4800109863281 C 326.7789306640625 334.5333251953125 326.4955749511719 335.32666015625 326.4955749511719 335.8599853515625 C 326.4955749511719 336.38665771484375 326.6789245605469 336.6499938964844 327.04559326171875 336.6499938964844 C 327.73223876953125 336.6499938964844 328.52557373046875 336.20001220703125 329.42559814453125 335.29998779296875 C 330.31890869140625 334.40667724609375 331.49224853515625 332.99334716796875 332.9455871582031 331.05999755859375 C 333.3455810546875 330.4800109863281 333.985595703125 330.19000244140625 334.8656005859375 330.19000244140625 C 335.3455810546875 330.19000244140625 335.5855712890625 330.28668212890625 335.5855712890625 330.4800109863281 C 335.5855712890625 330.52667236328125 335.562255859375 330.5899963378906 335.5155944824219 330.6700134277344 C 333.00225830078125 334.5433349609375 331.49224853515625 337.32000732421875 330.985595703125 339 C 330.9189147949219 339.1933288574219 330.83892822265625 339.2900085449219 330.7455749511719 339.2900085449219 L 330.66558837890625 339.2900085449219 C 330.02557373046875 339.2900085449219 329.7055969238281 338.77667236328125 329.7055969238281 337.75 L 329.8055725097656 336.8399963378906 ZM 342.0015563964844 335.95001220703125 C 341.69488525390625 335.95001220703125 341.4615478515625 335.7933349609375 341.30157470703125 335.4800109863281 C 341.1415710449219 335.17333984375 341.0615539550781 334.8699951171875 341.0615539550781 334.57000732421875 C 341.0615539550781 334.27667236328125 341.1582336425781 333.9366760253906 341.3515625 333.54998779296875 C 341.3515625 333.34332275390625 341.2715759277344 333.239990234375 341.111572265625 333.239990234375 C 340.4848937988281 333.239990234375 339.7715759277344 333.61334228515625 338.9715576171875 334.3599853515625 C 338.17156982421875 335.1000061035156 337.5015563964844 335.8666687011719 336.9615478515625 336.6600036621094 C 336.4148864746094 337.4533386230469 335.918212890625 338.25 335.4715576171875 339.04998779296875 C 335.1982421875 339.5299987792969 334.6382141113281 339.7699890136719 333.79156494140625 339.7699890136719 C 333.35821533203125 339.7699890136719 333.1415710449219 339.67333984375 333.1415710449219 339.4800109863281 C 333.1415710449219 339.0466613769531 333.92822265625 337.4333190917969 335.5015563964844 334.6400146484375 C 337.0815734863281 331.85333251953125 338.12823486328125 330.36334228515625 338.6415710449219 330.1700134277344 C 338.98822021484375 329.989990234375 339.3815612792969 329.8999938964844 339.8215637207031 329.8999938964844 C 340.2615661621094 329.8999938964844 340.4815673828125 329.99334716796875 340.4815673828125 330.17999267578125 C 340.4815673828125 330.3666687011719 340.2982177734375 330.72332763671875 339.9315490722656 331.25 C 339.56488037109375 331.77667236328125 339.3815612792969 332.11334228515625 339.3815612792969 332.260009765625 C 339.3815612792969 332.3999938964844 339.438232421875 332.4700012207031 339.55157470703125 332.4700012207031 C 339.611572265625 332.4700012207031 339.7882385253906 332.3733215332031 340.0815734863281 332.17999267578125 C 340.78155517578125 331.6533203125 341.6448974609375 331.1099853515625 342.67156982421875 330.54998779296875 L 342.8815612792969 330.260009765625 C 343.2682189941406 329.7799987792969 343.82489013671875 329.5400085449219 344.55157470703125 329.5400085449219 C 345.2782287597656 329.5400085449219 345.6415710449219 329.6866760253906 345.6415710449219 329.9800109863281 C 345.6148986816406 330.05999755859375 345.5348815917969 330.1866760253906 345.40155029296875 330.3599853515625 C 344.1415710449219 332.086669921875 343.0782165527344 333.8933410644531 342.2115478515625 335.7799987792969 C 342.15155029296875 335.8933410644531 342.0815734863281 335.95001220703125 342.0015563964844 335.95001220703125 ZM 355.1975402832031 323.6600036621094 L 356.3775634765625 323.6199951171875 C 356.5375671386719 323.6199951171875 356.6175537109375 323.6499938964844 356.6175537109375 323.7099914550781 C 356.6175537109375 323.77667236328125 356.60089111328125 323.8566589355469 356.56756591796875 323.95001220703125 C 356.5342102050781 324.04998779296875 356.4642333984375 324.1700134277344 356.3575439453125 324.30999755859375 C 356.257568359375 324.4566650390625 356.13421630859375 324.586669921875 355.987548828125 324.70001220703125 C 355.6075439453125 325 355.1308898925781 325.1499938964844 354.55755615234375 325.1499938964844 C 353.9908752441406 325.1499938964844 353.5775451660156 325.1666564941406 353.31756591796875 325.20001220703125 C 353.0508728027344 325.23333740234375 352.8208923339844 325.3133239746094 352.6275634765625 325.44000244140625 C 352.4342346191406 325.5666809082031 352.30755615234375 325.663330078125 352.24755859375 325.7300109863281 C 352.1808776855469 325.7900085449219 352.06756591796875 325.95001220703125 351.9075622558594 326.2099914550781 C 351.74755859375 326.46331787109375 351.6375427246094 326.6400146484375 351.5775451660156 326.739990234375 C 350.7242126464844 327.9200134277344 349.35089111328125 330.1499938964844 347.4575500488281 333.42999267578125 C 345.564208984375 336.7099914550781 344.38421630859375 339.2466735839844 343.91754150390625 341.0400085449219 C 343.8708801269531 341.20001220703125 343.7242126464844 341.2799987792969 343.4775390625 341.2799987792969 C 343.2242126464844 341.2799987792969 342.88421630859375 341.0733337402344 342.4575500488281 340.6600036621094 C 342.02423095703125 340.239990234375 341.80755615234375 339.8133239746094 341.80755615234375 339.3800048828125 C 341.80755615234375 338.9533386230469 342.4575500488281 337.6666564941406 343.757568359375 335.5199890136719 C 345.064208984375 333.3733215332031 346.37420654296875 331.26666259765625 347.68756103515625 329.20001220703125 C 349.0008850097656 327.1266784667969 349.6575622558594 325.97332763671875 349.6575622558594 325.739990234375 C 349.6575622558594 325.50665283203125 349.5608825683594 325.36334228515625 349.3675537109375 325.30999755859375 C 349.1742248535156 325.25 348.8375549316406 325.2200012207031 348.3575439453125 325.2200012207031 L 347.56756591796875 325.2200012207031 C 347.36090087890625 325.2200012207031 347.257568359375 325.1266784667969 347.257568359375 324.94000244140625 C 347.257568359375 324.7466735839844 347.3475646972656 324.5400085449219 347.5275573730469 324.32000732421875 C 347.7142333984375 324.1066589355469 347.9942321777344 323.9200134277344 348.3675537109375 323.760009765625 C 348.74755859375 323.6000061035156 349.1308898925781 323.44000244140625 349.5175476074219 323.2799987792969 C 349.910888671875 323.1199951171875 350.4242248535156 322.760009765625 351.05755615234375 322.20001220703125 C 351.6908874511719 321.6400146484375 352.3275451660156 320.9200134277344 352.9675598144531 320.0400085449219 C 353.3675537109375 319.49334716796875 354.0542297363281 319.2200012207031 355.0275573730469 319.2200012207031 C 355.3675537109375 319.2200012207031 355.5375671386719 319.32666015625 355.5375671386719 319.5400085449219 C 355.5375671386719 319.6666564941406 355.17755126953125 320.25 354.4575500488281 321.2900085449219 C 353.737548828125 322.3299865722656 353.3775634765625 322.9800109863281 353.3775634765625 323.239990234375 C 353.3775634765625 323.50665283203125 353.6175537109375 323.6400146484375 354.0975646972656 323.6400146484375 C 354.2842102050781 323.6533203125 354.65087890625 323.6600036621094 355.1975402832031 323.6600036621094 ZM 258.3116455078125 361.75 C 258.19830322265625 361.75 258.1249694824219 361.67999267578125 258.0916442871094 361.53997802734375 C 258.0916442871094 361.26666259765625 258.28497314453125 360.95330810546875 258.671630859375 360.5999755859375 C 259.0516357421875 360.24664306640625 259.3583068847656 360.0233154296875 259.5916442871094 359.92999267578125 C 259.8249816894531 359.8299865722656 260.5982971191406 359.76666259765625 261.9116516113281 359.739990234375 L 262.24163818359375 359.3499755859375 C 267.1083068847656 353.7366638183594 270.4849853515625 350.92999267578125 272.37164306640625 350.92999267578125 C 272.5316467285156 350.90997314453125 272.7149658203125 350.8999938964844 272.921630859375 350.8999938964844 C 274.0283203125 350.8999938964844 274.5816345214844 351.1666564941406 274.5816345214844 351.6999816894531 C 274.5816345214844 351.7933349609375 274.4783020019531 352.0466613769531 274.2716369628906 352.4599914550781 L 273.191650390625 354.6199951171875 C 272.6783142089844 355.64666748046875 272.181640625 356.6866455078125 271.7016296386719 357.739990234375 C 269.1083068847656 363.45330810546875 267.60498046875 367.1999816894531 267.191650390625 368.97998046875 C 267.191650390625 369.1066589355469 267.0283203125 369.16998291015625 266.7016296386719 369.16998291015625 C 266.3683166503906 369.16998291015625 265.9716491699219 368.989990234375 265.5116271972656 368.6299743652344 C 265.04498291015625 368.2699890136719 264.8116455078125 367.95330810546875 264.8116455078125 367.67999267578125 C 264.8116455078125 367.1866455078125 265.2049560546875 366.25 265.99163818359375 364.8699951171875 C 266.7716369628906 363.49664306640625 267.1616516113281 362.5999755859375 267.1616516113281 362.17999267578125 C 267.1616516113281 361.6199951171875 266.0749816894531 361.3399963378906 263.9016418457031 361.3399963378906 C 263.5816345214844 361.3399963378906 263.0849609375 361.3566589355469 262.4116516113281 361.3899841308594 L 261.50164794921875 362.5899963378906 C 260.38165283203125 364.0966491699219 259.3083190917969 365.9599914550781 258.2816467285156 368.17999267578125 C 258.1083068847656 368.5799865722656 257.5749816894531 368.7799987792969 256.681640625 368.7799987792969 C 255.78163146972656 368.7799987792969 255.33163452148438 368.6533203125 255.33163452148438 368.3999938964844 C 255.33163452148438 368.2266540527344 255.83163452148438 367.45330810546875 256.8316345214844 366.0799865722656 C 257.8316345214844 364.71331787109375 259.0216369628906 363.1999816894531 260.4016418457031 361.53997802734375 C 260.1616516113281 361.566650390625 259.85498046875 361.5966491699219 259.48162841796875 361.6299743652344 C 259.1149597167969 361.663330078125 258.8316345214844 361.6933288574219 258.63165283203125 361.7200012207031 C 258.431640625 361.739990234375 258.3249816894531 361.75 258.3116455078125 361.75 M 268.2716369628906 358.65997314453125 C 268.2716369628906 358.65997314453125 268.4283142089844 358.4700012207031 268.74163818359375 358.0899963378906 C 269.0483093261719 357.7166442871094 269.3583068847656 357.14666748046875 269.671630859375 356.3799743652344 C 269.9849853515625 355.6066589355469 270.1416320800781 355.086669921875 270.1416320800781 354.8199768066406 C 270.1416320800781 354.5466613769531 270.0049743652344 354.40997314453125 269.73162841796875 354.40997314453125 C 269.25164794921875 354.40997314453125 268.4616394042969 354.9166564941406 267.36163330078125 355.92999267578125 C 266.2549743652344 356.9499816894531 265.0549621582031 358.2200012207031 263.7616271972656 359.739990234375 L 266.37164306640625 359.7799987792969 C 267.0116271972656 359.7799987792969 267.64495849609375 359.4066467285156 268.2716369628906 358.65997314453125 ZM 272.0376281738281 368.69000244140625 C 271.317626953125 368.69000244140625 270.9009704589844 368.7599792480469 270.7876281738281 368.8999938964844 C 270.24761962890625 369.6066589355469 269.1242980957031 371.59332275390625 267.4176330566406 374.8599853515625 C 265.7109680175781 378.1199951171875 264.62762451171875 380.413330078125 264.1676330566406 381.739990234375 C 264.1009521484375 381.9333190917969 263.9476318359375 382.0299987792969 263.7076416015625 382.0299987792969 C 263.4676208496094 382.0299987792969 263.1876220703125 381.85333251953125 262.8676452636719 381.5 C 262.5476379394531 381.1533203125 262.38763427734375 380.7799987792969 262.38763427734375 380.3799743652344 C 262.38763427734375 379.8199768066406 263.1876220703125 378.1199951171875 264.7876281738281 375.2799987792969 C 266.38763427734375 372.44000244140625 268.2876281738281 369.163330078125 270.4876403808594 365.4499816894531 C 272.6876220703125 361.7366638183594 273.9776306152344 359.5233154296875 274.3576354980469 358.80999755859375 C 274.73095703125 358.0966491699219 274.92431640625 357.7200012207031 274.9376220703125 357.67999267578125 C 274.9576416015625 357.6399841308594 275.0143127441406 357.55999755859375 275.1076354980469 357.44000244140625 C 275.2076416015625 357.3199768066406 275.3209533691406 357.2200012207031 275.4476318359375 357.1399841308594 C 275.8143005371094 356.8999938964844 276.30096435546875 356.7799987792969 276.9076232910156 356.7799987792969 C 277.24761962890625 356.7799987792969 277.4176330566406 356.88665771484375 277.4176330566406 357.0999755859375 C 277.4176330566406 357.1933288574219 277.1976318359375 357.57666015625 276.75762939453125 358.25 C 276.317626953125 358.9233093261719 276.0976257324219 359.3399963378906 276.0976257324219 359.5 C 276.0976257324219 359.65997314453125 276.1509704589844 359.739990234375 276.25762939453125 359.739990234375 C 276.3709716796875 359.739990234375 276.5809631347656 359.643310546875 276.88763427734375 359.4499816894531 C 277.82763671875 358.8566589355469 278.6976318359375 358.55999755859375 279.49761962890625 358.55999755859375 C 279.817626953125 358.55999755859375 280.1076354980469 358.6866455078125 280.3676452636719 358.94000244140625 C 280.6209716796875 359.1999816894531 280.74761962890625 359.62664794921875 280.74761962890625 360.2200012207031 C 280.74761962890625 361.5133056640625 280.3642883300781 362.8133239746094 279.5976257324219 364.1199951171875 C 278.8309631347656 365.41998291015625 277.7643127441406 366.50665283203125 276.39764404296875 367.3799743652344 C 275.0242919921875 368.2533264160156 273.5709533691406 368.69000244140625 272.0376281738281 368.69000244140625 M 278.2276306152344 361.4599914550781 C 278.2276306152344 361.239990234375 278.18096923828125 361.05999755859375 278.087646484375 360.91998291015625 C 277.9876403808594 360.7866516113281 277.8676452636719 360.7200012207031 277.7276306152344 360.7200012207031 C 277.14764404296875 360.7200012207031 276.5143127441406 360.9933166503906 275.82763671875 361.53997802734375 C 275.1409606933594 362.0799865722656 274.5443115234375 362.6933288574219 274.0376281738281 363.3799743652344 C 273.5376281738281 364.0733337402344 273.1142883300781 364.7066650390625 272.76763916015625 365.2799987792969 C 272.4276428222656 365.85333251953125 272.25762939453125 366.2200012207031 272.25762939453125 366.3799743652344 C 272.25762939453125 366.53997802734375 272.3709716796875 366.6999816894531 272.5976257324219 366.8599853515625 C 272.8309631347656 367.0199890136719 273.1076354980469 367.0999755859375 273.4276428222656 367.0999755859375 C 274.4342956542969 367.0999755859375 275.4876403808594 366.413330078125 276.587646484375 365.03997802734375 C 277.68096923828125 363.6666564941406 278.2276306152344 362.47332763671875 278.2276306152344 361.4599914550781 ZM 281.8296203613281 368.69000244140625 C 281.109619140625 368.69000244140625 280.6929626464844 368.7599792480469 280.5796203613281 368.8999938964844 C 280.03961181640625 369.6066589355469 278.9162902832031 371.59332275390625 277.2096252441406 374.8599853515625 C 275.5029602050781 378.1199951171875 274.41961669921875 380.413330078125 273.9596252441406 381.739990234375 C 273.8929443359375 381.9333190917969 273.7396240234375 382.0299987792969 273.4996337890625 382.0299987792969 C 273.2596130371094 382.0299987792969 272.9796142578125 381.85333251953125 272.6596374511719 381.5 C 272.3396301269531 381.1533203125 272.17962646484375 380.7799987792969 272.17962646484375 380.3799743652344 C 272.17962646484375 379.8199768066406 272.9796142578125 378.1199951171875 274.5796203613281 375.2799987792969 C 276.17962646484375 372.44000244140625 278.0796203613281 369.163330078125 280.2796325683594 365.4499816894531 C 282.4796142578125 361.7366638183594 283.7696228027344 359.5233154296875 284.1496276855469 358.80999755859375 C 284.52294921875 358.0966491699219 284.71630859375 357.7200012207031 284.7296142578125 357.67999267578125 C 284.7496337890625 357.6399841308594 284.8063049316406 357.55999755859375 284.8996276855469 357.44000244140625 C 284.9996337890625 357.3199768066406 285.1129455566406 357.2200012207031 285.2396240234375 357.1399841308594 C 285.6062927246094 356.8999938964844 286.09295654296875 356.7799987792969 286.6996154785156 356.7799987792969 C 287.03961181640625 356.7799987792969 287.2096252441406 356.88665771484375 287.2096252441406 357.0999755859375 C 287.2096252441406 357.1933288574219 286.9896240234375 357.57666015625 286.54962158203125 358.25 C 286.109619140625 358.9233093261719 285.8896179199219 359.3399963378906 285.8896179199219 359.5 C 285.8896179199219 359.65997314453125 285.9429626464844 359.739990234375 286.04962158203125 359.739990234375 C 286.1629638671875 359.739990234375 286.3729553222656 359.643310546875 286.67962646484375 359.4499816894531 C 287.61962890625 358.8566589355469 288.4896240234375 358.55999755859375 289.28961181640625 358.55999755859375 C 289.609619140625 358.55999755859375 289.8996276855469 358.6866455078125 290.1596374511719 358.94000244140625 C 290.4129638671875 359.1999816894531 290.53961181640625 359.62664794921875 290.53961181640625 360.2200012207031 C 290.53961181640625 361.5133056640625 290.1562805175781 362.8133239746094 289.3896179199219 364.1199951171875 C 288.6229553222656 365.41998291015625 287.5563049316406 366.50665283203125 286.18963623046875 367.3799743652344 C 284.8162841796875 368.2533264160156 283.3629455566406 368.69000244140625 281.8296203613281 368.69000244140625 M 288.0196228027344 361.4599914550781 C 288.0196228027344 361.239990234375 287.97296142578125 361.05999755859375 287.879638671875 360.91998291015625 C 287.7796325683594 360.7866516113281 287.6596374511719 360.7200012207031 287.5196228027344 360.7200012207031 C 286.93963623046875 360.7200012207031 286.3063049316406 360.9933166503906 285.61962890625 361.53997802734375 C 284.9329528808594 362.0799865722656 284.3363037109375 362.6933288574219 283.8296203613281 363.3799743652344 C 283.3296203613281 364.0733337402344 282.9062805175781 364.7066650390625 282.55963134765625 365.2799987792969 C 282.2196350097656 365.85333251953125 282.04962158203125 366.2200012207031 282.04962158203125 366.3799743652344 C 282.04962158203125 366.53997802734375 282.1629638671875 366.6999816894531 282.3896179199219 366.8599853515625 C 282.6229553222656 367.0199890136719 282.8996276855469 367.0999755859375 283.2196350097656 367.0999755859375 C 284.2262878417969 367.0999755859375 285.2796325683594 366.413330078125 286.379638671875 365.03997802734375 C 287.47296142578125 363.6666564941406 288.0196228027344 362.47332763671875 288.0196228027344 361.4599914550781 ZM 289.1256103515625 368.7099914550781 C 289.1256103515625 368.7099914550781 289.1256103515625 368.54998779296875 289.1256103515625 368.22998046875 C 289.1256103515625 367.90997314453125 289.3889465332031 367.0733337402344 289.9156188964844 365.7200012207031 C 290.4422607421875 364.3733215332031 291.0356140136719 363.05999755859375 291.69561767578125 361.7799987792969 C 292.34893798828125 360.5 293.235595703125 358.9233093261719 294.3555908203125 357.04998779296875 C 296.02227783203125 354.2833251953125 297.735595703125 351.53997802734375 299.49560546875 348.8199768066406 C 299.7689514160156 348.38665771484375 300.1922607421875 348.0333251953125 300.7655944824219 347.7599792480469 C 301.33892822265625 347.4866638183594 301.85894775390625 347.3499755859375 302.3255920410156 347.3499755859375 C 302.7922668457031 347.3499755859375 303.0322570800781 347.47998046875 303.04559326171875 347.739990234375 C 303.04559326171875 347.8199768066406 302.9989318847656 347.9066467285156 302.9056091308594 348 C 302.35894775390625 348.4933166503906 301.44561767578125 349.6399841308594 300.1656188964844 351.44000244140625 C 298.8855895996094 353.239990234375 297.5289306640625 355.29998779296875 296.0956115722656 357.6199951171875 C 294.6622619628906 359.94000244140625 293.4056091308594 362.3899841308594 292.3255920410156 364.9700012207031 C 291.24560546875 367.5433349609375 290.7055969238281 369.64666748046875 290.7055969238281 371.2799987792969 C 290.7055969238281 371.5199890136719 290.6355895996094 371.6399841308594 290.49560546875 371.6399841308594 C 290.2222595214844 371.6399841308594 289.98895263671875 371.53997802734375 289.79559326171875 371.3399963378906 C 289.6022644042969 371.1399841308594 289.4656066894531 370.88665771484375 289.3855895996094 370.5799865722656 C 289.2122802734375 369.97332763671875 289.1256103515625 369.3499755859375 289.1256103515625 368.7099914550781 ZM 294.3595886230469 369.0199890136719 C 294.1329040527344 369.0199890136719 293.8829040527344 368.8799743652344 293.6095886230469 368.5999755859375 C 293.3429260253906 368.3199768066406 293.2095642089844 367.97998046875 293.2095642089844 367.5799865722656 C 293.2095642089844 367.3599853515625 293.73291015625 366.22998046875 294.7795715332031 364.19000244140625 C 295.82623291015625 362.1499938964844 296.3662414550781 360.7699890136719 296.3995666503906 360.04998779296875 C 296.3995666503906 359.8233337402344 296.54290771484375 359.6133117675781 296.82958984375 359.41998291015625 C 297.3428955078125 359.1199951171875 298.1029052734375 358.9700012207031 299.1095886230469 358.9700012207031 C 299.30291748046875 358.9700012207031 299.5062561035156 359.00665283203125 299.7195739746094 359.0799865722656 C 299.9395751953125 359.14666748046875 300.0495910644531 359.24664306640625 300.0495910644531 359.3799743652344 C 300.0495910644531 359.44000244140625 300.0229187011719 359.4933166503906 299.9695739746094 359.53997802734375 C 299.3629150390625 360.3133239746094 298.47625732421875 361.6999816894531 297.3095703125 363.6999816894531 C 296.1429138183594 365.6999816894531 295.2629089355469 367.3233337402344 294.6695861816406 368.5699768066406 C 294.5895690917969 368.8699951171875 294.4862365722656 369.0199890136719 294.3595886230469 369.0199890136719 M 299.6095886230469 357.6199951171875 C 298.9095764160156 357.6199951171875 298.54290771484375 357.3399963378906 298.50958251953125 356.7799987792969 L 298.50958251953125 356.7599792480469 C 298.50958251953125 356.2799987792969 298.7462463378906 355.88665771484375 299.2195739746094 355.5799865722656 C 299.6929016113281 355.2799987792969 300.1595764160156 355.1299743652344 300.61956787109375 355.1299743652344 C 301.32623291015625 355.1299743652344 301.6962585449219 355.40997314453125 301.7295837402344 355.9700012207031 C 301.7295837402344 356.4499816894531 301.4962463378906 356.8466491699219 301.0295715332031 357.15997314453125 C 300.5628967285156 357.4666442871094 300.0895690917969 357.6199951171875 299.6095886230469 357.6199951171875 ZM 305.0095520019531 359.03997802734375 L 305.4195556640625 359.05999755859375 C 305.6929016113281 359.05999755859375 305.9095764160156 358.9266662597656 306.069580078125 358.65997314453125 C 306.19622802734375 358.306640625 306.6695556640625 358.1333312988281 307.48956298828125 358.1399841308594 C 308.3028869628906 358.14666748046875 308.7095642089844 358.3199768066406 308.7095642089844 358.65997314453125 C 308.7095642089844 358.7066650390625 308.5262451171875 358.913330078125 308.1595764160156 359.2799987792969 C 307.79290771484375 359.64666748046875 307.3428955078125 360.16998291015625 306.8095703125 360.8499755859375 C 306.28289794921875 361.5299987792969 305.876220703125 362.21331787109375 305.5895690917969 362.8999938964844 C 305.5562438964844 363 305.4328918457031 363.04998779296875 305.2195739746094 363.04998779296875 C 304.99957275390625 363.04998779296875 304.82623291015625 362.9499816894531 304.6995544433594 362.75 C 304.5729064941406 362.54998779296875 304.5095520019531 362.33331298828125 304.5095520019531 362.0999755859375 C 304.5095520019531 361.8666687011719 304.5362243652344 361.663330078125 304.5895690917969 361.489990234375 C 304.6495666503906 361.30999755859375 304.6795654296875 361.17999267578125 304.6795654296875 361.0999755859375 C 304.6795654296875 360.79998779296875 304.5095520019531 360.6499938964844 304.1695556640625 360.6499938964844 C 303.2428894042969 360.6499938964844 302.4195556640625 361.17999267578125 301.6995544433594 362.239990234375 C 300.97955322265625 363.306640625 300.61956787109375 364.2799987792969 300.61956787109375 365.15997314453125 C 300.61956787109375 366.32666015625 301.1895751953125 366.90997314453125 302.3295593261719 366.90997314453125 C 303.0162353515625 366.90997314453125 303.6162414550781 366.75 304.12957763671875 366.42999267578125 C 304.2362365722656 366.3366394042969 304.3462219238281 366.28997802734375 304.4595642089844 366.28997802734375 C 304.6395568847656 366.28997802734375 304.72955322265625 366.37664794921875 304.72955322265625 366.54998779296875 C 304.72955322265625 366.9700012207031 304.3529052734375 367.45330810546875 303.5995788574219 368 C 302.8462219238281 368.5533142089844 301.94622802734375 368.8299865722656 300.8995666503906 368.8299865722656 C 299.8529052734375 368.8299865722656 299.1329040527344 368.5699768066406 298.73956298828125 368.04998779296875 C 298.3462219238281 367.5299987792969 298.1495666503906 366.95330810546875 298.1495666503906 366.3199768066406 C 298.1495666503906 365.6933288574219 298.3229064941406 364.97998046875 298.6695556640625 364.17999267578125 C 299.0095520019531 363.3799743652344 299.462890625 362.5899963378906 300.0295715332031 361.80999755859375 C 300.6029052734375 361.0366516113281 301.33624267578125 360.3799743652344 302.22955322265625 359.8399963378906 C 303.1228942871094 359.306640625 304.049560546875 359.03997802734375 305.0095520019531 359.03997802734375 ZM 311.10955810546875 366.9599914550781 L 311.1595458984375 366.4599914550781 C 311.1595458984375 366.32666015625 311.10955810546875 366.2599792480469 311.0095520019531 366.2599792480469 C 310.86956787109375 366.2599792480469 310.5795593261719 366.4700012207031 310.1395568847656 366.8899841308594 C 309.6995544433594 367.3033142089844 309.146240234375 367.72332763671875 308.47955322265625 368.1499938964844 C 307.8195495605469 368.5699768066406 307.1562194824219 368.7799987792969 306.48956298828125 368.7799987792969 C 305.8229064941406 368.7799987792969 305.48956298828125 368.2933349609375 305.48956298828125 367.3199768066406 C 305.48956298828125 366.1066589355469 306.0195617675781 364.7066650390625 307.0795593261719 363.1199951171875 C 307.61956787109375 362.3199768066406 308.2462158203125 361.5799865722656 308.9595642089844 360.8999938964844 C 309.6728820800781 360.2200012207031 310.5428771972656 359.65997314453125 311.5695495605469 359.2200012207031 C 312.5895690917969 358.7799987792969 313.6595458984375 358.55999755859375 314.7795715332031 358.55999755859375 C 315.3728942871094 358.55999755859375 315.876220703125 358.7166442871094 316.28955078125 359.0299987792969 C 316.7095642089844 359.34332275390625 316.9195556640625 359.7266540527344 316.9195556640625 360.17999267578125 C 316.9195556640625 360.6333312988281 316.78289794921875 360.8599853515625 316.5095520019531 360.8599853515625 C 316.3628845214844 360.8599853515625 316.1695556640625 360.7733154296875 315.9295654296875 360.5999755859375 C 315.4828796386719 360.2933349609375 314.7795715332031 360.1399841308594 313.8195495605469 360.1399841308594 C 312.5595703125 360.1399841308594 311.3628845214844 360.71331787109375 310.22955322265625 361.8599853515625 C 309.1029052734375 363.00665283203125 308.53955078125 364.1399841308594 308.53955078125 365.2599792480469 C 308.53955078125 365.3999938964844 308.5828857421875 365.5333251953125 308.6695556640625 365.65997314453125 C 308.76287841796875 365.7933349609375 308.8895568847656 365.8599853515625 309.049560546875 365.8599853515625 C 309.5295715332031 365.8599853515625 310.14288330078125 365.5266418457031 310.8895568847656 364.8599853515625 C 311.64288330078125 364.1933288574219 312.3795471191406 363.2366638183594 313.09954833984375 361.989990234375 C 313.146240234375 361.8499755859375 313.3228759765625 361.71331787109375 313.6295471191406 361.5799865722656 C 313.93621826171875 361.45330810546875 314.2962341308594 361.3899841308594 314.7095642089844 361.3899841308594 C 315.3028869628906 361.4366455078125 315.59954833984375 361.566650390625 315.59954833984375 361.7799987792969 C 315.59954833984375 361.7933349609375 315.53955078125 361.893310546875 315.4195556640625 362.0799865722656 C 315.299560546875 362.2599792480469 315.0862121582031 362.5899963378906 314.7795715332031 363.0699768066406 C 314.47955322265625 363.54998779296875 314.0528869628906 364.3399963378906 313.49957275390625 365.44000244140625 C 312.94622802734375 366.5333251953125 312.6228942871094 367.3999938964844 312.5295715332031 368.03997802734375 C 312.5095520019531 368.2333068847656 312.4295654296875 368.3299865722656 312.28955078125 368.3299865722656 C 311.5028991699219 368.3299865722656 311.10955810546875 367.8733215332031 311.10955810546875 366.9599914550781 ZM 327.5495300292969 352.4599914550781 L 328.72955322265625 352.41998291015625 C 328.8895568847656 352.41998291015625 328.96954345703125 352.4499816894531 328.96954345703125 352.5099792480469 C 328.96954345703125 352.57666015625 328.952880859375 352.6566467285156 328.9195556640625 352.75 C 328.8861999511719 352.8499755859375 328.81622314453125 352.9700012207031 328.70953369140625 353.1099853515625 C 328.60955810546875 353.25665283203125 328.4862060546875 353.38665771484375 328.33953857421875 353.5 C 327.95953369140625 353.79998779296875 327.4828796386719 353.9499816894531 326.9095458984375 353.9499816894531 C 326.3428649902344 353.9499816894531 325.9295349121094 353.9666442871094 325.6695556640625 354 C 325.4028625488281 354.0333251953125 325.1728820800781 354.1133117675781 324.97955322265625 354.239990234375 C 324.7862243652344 354.3666687011719 324.6595458984375 354.46331787109375 324.59954833984375 354.5299987792969 C 324.5328674316406 354.5899963378906 324.4195556640625 354.75 324.2595520019531 355.0099792480469 C 324.09954833984375 355.2633056640625 323.9895324707031 355.44000244140625 323.9295349121094 355.53997802734375 C 323.0762023925781 356.7200012207031 321.702880859375 358.9499816894531 319.8095397949219 362.22998046875 C 317.91619873046875 365.5099792480469 316.7362060546875 368.0466613769531 316.26953125 369.8399963378906 C 316.2228698730469 370 316.0762023925781 370.0799865722656 315.82952880859375 370.0799865722656 C 315.5762023925781 370.0799865722656 315.2362060546875 369.8733215332031 314.8095397949219 369.4599914550781 C 314.376220703125 369.03997802734375 314.1595458984375 368.6133117675781 314.1595458984375 368.17999267578125 C 314.1595458984375 367.7533264160156 314.8095397949219 366.4666442871094 316.10955810546875 364.3199768066406 C 317.41619873046875 362.1733093261719 318.7261962890625 360.066650390625 320.03955078125 358 C 321.3528747558594 355.9266662597656 322.0095520019531 354.7733154296875 322.0095520019531 354.53997802734375 C 322.0095520019531 354.306640625 321.9128723144531 354.163330078125 321.71954345703125 354.1099853515625 C 321.5262145996094 354.04998779296875 321.1895446777344 354.0199890136719 320.70953369140625 354.0199890136719 L 319.9195556640625 354.0199890136719 C 319.712890625 354.0199890136719 319.60955810546875 353.9266662597656 319.60955810546875 353.739990234375 C 319.60955810546875 353.5466613769531 319.6995544433594 353.3399963378906 319.8795471191406 353.1199951171875 C 320.06622314453125 352.9066467285156 320.3462219238281 352.7200012207031 320.71954345703125 352.55999755859375 C 321.09954833984375 352.3999938964844 321.4828796386719 352.239990234375 321.8695373535156 352.0799865722656 C 322.26287841796875 351.91998291015625 322.7762145996094 351.55999755859375 323.4095458984375 351 C 324.0428771972656 350.44000244140625 324.6795349121094 349.7200012207031 325.3195495605469 348.8399963378906 C 325.71954345703125 348.2933349609375 326.4062194824219 348.0199890136719 327.3795471191406 348.0199890136719 C 327.71954345703125 348.0199890136719 327.8895568847656 348.12664794921875 327.8895568847656 348.3399963378906 C 327.8895568847656 348.4666442871094 327.529541015625 349.04998779296875 326.8095397949219 350.0899963378906 C 326.08953857421875 351.1299743652344 325.72955322265625 351.7799987792969 325.72955322265625 352.03997802734375 C 325.72955322265625 352.306640625 325.96954345703125 352.44000244140625 326.4495544433594 352.44000244140625 C 326.6361999511719 352.45330810546875 327.00286865234375 352.4599914550781 327.5495300292969 352.4599914550781 ZM 320.42352294921875 369.0199890136719 C 320.19683837890625 369.0199890136719 319.94683837890625 368.8799743652344 319.67352294921875 368.5999755859375 C 319.4068603515625 368.3199768066406 319.27349853515625 367.97998046875 319.27349853515625 367.5799865722656 C 319.27349853515625 367.3599853515625 319.7968444824219 366.22998046875 320.843505859375 364.19000244140625 C 321.8901672363281 362.1499938964844 322.43017578125 360.7699890136719 322.4635009765625 360.04998779296875 C 322.4635009765625 359.8233337402344 322.6068420410156 359.6133117675781 322.8935241699219 359.41998291015625 C 323.4068603515625 359.1199951171875 324.1668395996094 358.9700012207031 325.17352294921875 358.9700012207031 C 325.3668518066406 358.9700012207031 325.5701904296875 359.00665283203125 325.78350830078125 359.0799865722656 C 326.0035095214844 359.14666748046875 326.113525390625 359.24664306640625 326.113525390625 359.3799743652344 C 326.113525390625 359.44000244140625 326.08685302734375 359.4933166503906 326.03350830078125 359.53997802734375 C 325.4268493652344 360.3133239746094 324.5401916503906 361.6999816894531 323.3735046386719 363.6999816894531 C 322.20684814453125 365.6999816894531 321.32684326171875 367.3233337402344 320.7335205078125 368.5699768066406 C 320.65350341796875 368.8699951171875 320.5501708984375 369.0199890136719 320.42352294921875 369.0199890136719 M 325.67352294921875 357.6199951171875 C 324.9735107421875 357.6199951171875 324.6068420410156 357.3399963378906 324.5735168457031 356.7799987792969 L 324.5735168457031 356.7599792480469 C 324.5735168457031 356.2799987792969 324.8101806640625 355.88665771484375 325.28350830078125 355.5799865722656 C 325.7568359375 355.2799987792969 326.2235107421875 355.1299743652344 326.6835021972656 355.1299743652344 C 327.3901672363281 355.1299743652344 327.76019287109375 355.40997314453125 327.79351806640625 355.9700012207031 C 327.79351806640625 356.4499816894531 327.5601806640625 356.8466491699219 327.093505859375 357.15997314453125 C 326.6268310546875 357.4666442871094 326.15350341796875 357.6199951171875 325.67352294921875 357.6199951171875 ZM 325.1934814453125 368.1099853515625 C 324.8268127441406 367.9366455078125 324.5268249511719 367.62664794921875 324.2934875488281 367.17999267578125 C 324.0668029785156 366.7266540527344 323.9534912109375 366.1733093261719 323.9534912109375 365.5199890136719 C 323.9534912109375 364.4933166503906 324.2834777832031 363.41998291015625 324.9434814453125 362.29998779296875 C 325.6101379394531 361.17999267578125 326.54681396484375 360.2200012207031 327.75347900390625 359.41998291015625 C 328.96014404296875 358.6199951171875 330.23681640625 358.2200012207031 331.58349609375 358.2200012207031 C 332.2034912109375 358.2200012207031 332.7234802246094 358.3899841308594 333.14349365234375 358.72998046875 C 333.55682373046875 359.0633239746094 333.76348876953125 359.393310546875 333.76348876953125 359.7200012207031 C 333.76348876953125 360.0533142089844 333.7168273925781 360.3133239746094 333.62347412109375 360.5 C 333.52349853515625 360.6933288574219 333.4734802246094 360.8233337402344 333.4734802246094 360.8899841308594 C 333.4734802246094 361.08331298828125 333.6268310546875 361.17999267578125 333.9334716796875 361.17999267578125 C 334.2401428222656 361.17999267578125 334.4734802246094 361.1399841308594 334.63348388671875 361.05999755859375 C 334.7934875488281 360.97998046875 334.8868103027344 360.94000244140625 334.9134826660156 360.94000244140625 C 335.04681396484375 360.94000244140625 335.1134948730469 361.10333251953125 335.1134948730469 361.42999267578125 C 335.1134948730469 361.75665283203125 334.9534912109375 362.1399841308594 334.63348388671875 362.5799865722656 C 334.3134765625 363.0199890136719 333.920166015625 363.34332275390625 333.4534912109375 363.54998779296875 C 333.3868103027344 363.6766662597656 333.3001403808594 363.8566589355469 333.1934814453125 364.0899963378906 C 333.08013916015625 364.3233337402344 332.8134765625 364.72332763671875 332.39349365234375 365.28997802734375 C 331.98016357421875 365.8566589355469 331.53680419921875 366.3599853515625 331.0634765625 366.79998779296875 C 330.59014892578125 367.239990234375 329.9668273925781 367.6399841308594 329.1934814453125 368 C 328.420166015625 368.3599853515625 327.7134704589844 368.53997802734375 327.073486328125 368.53997802734375 C 326.4334716796875 368.53997802734375 325.80682373046875 368.39666748046875 325.1934814453125 368.1099853515625 M 330.5534973144531 363.97998046875 C 330.5534973144531 363.85333251953125 330.48016357421875 363.78997802734375 330.33349609375 363.78997802734375 C 330.1268310546875 363.78997802734375 329.89013671875 363.8399963378906 329.62347412109375 363.94000244140625 C 329.3634948730469 364.0333251953125 329.2168273925781 364.0799865722656 329.1834716796875 364.0799865722656 C 329.08349609375 364.0799865722656 329.0334777832031 364.00665283203125 329.0334777832031 363.8599853515625 C 329.0334777832031 363.239990234375 329.2601623535156 362.7066650390625 329.7134704589844 362.2599792480469 C 329.8868103027344 362.066650390625 330.14013671875 361.8999938964844 330.4734802246094 361.7599792480469 C 330.8134765625 361.62664794921875 331.073486328125 361.4666442871094 331.25347900390625 361.2799987792969 C 331.4401550292969 361.0999755859375 331.5334777832031 360.7866516113281 331.5334777832031 360.3399963378906 C 331.5334777832031 359.7933349609375 331.246826171875 359.5199890136719 330.6734924316406 359.5199890136719 C 329.6468200683594 359.5199890136719 328.670166015625 360.2433166503906 327.74346923828125 361.69000244140625 C 326.8168029785156 363.13665771484375 326.3534851074219 364.42999267578125 326.3534851074219 365.5699768066406 C 326.3534851074219 365.9499816894531 326.4834899902344 366.2766418457031 326.74346923828125 366.54998779296875 C 327.0101623535156 366.8233337402344 327.3268127441406 366.9599914550781 327.6934814453125 366.9599914550781 C 328.5268249511719 366.9599914550781 329.21014404296875 366.6133117675781 329.74346923828125 365.91998291015625 C 330.2834777832031 365.2200012207031 330.5534973144531 364.5733337402344 330.5534973144531 363.97998046875 ZM 340.1974792480469 368.8299865722656 C 339.7508239746094 368.8299865722656 339.5274963378906 368.7266540527344 339.5274963378906 368.5199890136719 L 339.5774841308594 368.3799743652344 C 340.5374755859375 366.94000244140625 341.3608093261719 365.54998779296875 342.0474853515625 364.2099914550781 C 342.7341613769531 362.87664794921875 343.0774841308594 362.0099792480469 343.0774841308594 361.6099853515625 C 343.0774841308594 361.4833068847656 343.0441589355469 361.3833312988281 342.97747802734375 361.30999755859375 C 342.91748046875 361.2366638183594 342.82415771484375 361.1933288574219 342.6974792480469 361.17999267578125 C 342.07080078125 361.17999267578125 341.2341613769531 361.5799865722656 340.1874694824219 362.3799743652344 C 339.14080810546875 363.17999267578125 338.2208251953125 364.0033264160156 337.427490234375 364.8499755859375 C 336.6341552734375 365.6966552734375 336.0441589355469 366.38665771484375 335.657470703125 366.91998291015625 C 335.2774963378906 367.4599914550781 334.70416259765625 367.72998046875 333.9374694824219 367.72998046875 C 333.5174865722656 367.72998046875 333.3074951171875 367.62664794921875 333.3074951171875 367.41998291015625 C 333.3074951171875 367 334.0908203125 365.5299987792969 335.657470703125 363.0099792480469 C 337.2308044433594 360.489990234375 338.27081298828125 359.1333312988281 338.7774963378906 358.94000244140625 C 339.0508117675781 358.7799987792969 339.40081787109375 358.6999816894531 339.8274841308594 358.6999816894531 C 340.24749755859375 358.6999816894531 340.4574890136719 358.7866516113281 340.4574890136719 358.9599914550781 C 340.4574890136719 359.12664794921875 340.2674865722656 359.489990234375 339.8874816894531 360.04998779296875 C 339.5008239746094 360.6099853515625 339.3074951171875 360.9700012207031 339.3074951171875 361.1299743652344 C 339.3408203125 361.25665283203125 339.41082763671875 361.3199768066406 339.5174865722656 361.3199768066406 C 339.61749267578125 361.3199768066406 339.7074890136719 361.2866516113281 339.7874755859375 361.2200012207031 C 342.1541442871094 359.3799743652344 344.0441589355469 358.4599914550781 345.4574890136719 358.4599914550781 C 346.0441589355469 358.4599914550781 346.3374938964844 358.806640625 346.3374938964844 359.5 C 346.3374938964844 359.9466552734375 346.0074768066406 360.913330078125 345.34747314453125 362.3999938964844 C 344.6808166503906 363.88665771484375 343.8408203125 365.3299865722656 342.8274841308594 366.72998046875 C 341.8074951171875 368.1299743652344 340.9308166503906 368.8299865722656 340.1974792480469 368.8299865722656 Z" transform="matrix(11.178875923156738, 0, 0, 11.178875923156738, -2695.39697265625, -3427.940185546875)" style="fill: rgb(255, 255, 255); white-space: pre; color: rgb(51, 51, 51); fill-opacity: 1;"/></svg>